<svg width="22" height="auto" viewBox="0 0 30 22" fill="none" xmlns="http://www.w3.org/2000/svg">
<path d="M4.46677 1.98151H25.533C26.2307 1.98353 26.8993 2.25342 27.3927 2.73225C27.886 3.21107 28.1641 3.85991 28.1662 4.53706V19.8704C28.1641 20.5475 27.886 21.1964 27.3927 21.6752C26.8993 22.154 26.2307 22.4239 25.533 22.4259H4.46677C3.76902 22.4239 3.10045 22.154 2.60707 21.6752C2.11368 21.1964 1.83558 20.5475 1.8335 19.8704V4.53706C1.83558 3.85991 2.11368 3.21107 2.60707 2.73225C3.10045 2.25342 3.76902 1.98353 4.46677 1.98151V1.98151Z" stroke="#E6B922" stroke-width="3" stroke-linecap="round" stroke-linejoin="round"/>
<path d="M28.1662 4.53705L14.9999 13.4815L1.8335 4.53705" stroke="#E6B922" stroke-width="3" stroke-linecap="round" stroke-linejoin="round"/>
</svg>
