<svg width="20" height="33" viewBox="0 0 20 33" fill="none" xmlns="http://www.w3.org/2000/svg">
<path d="M15.75 0H3.75C2.75552 0.000265089 1.80185 0.395438 1.09864 1.09864C0.395438 1.80185 0.000265089 2.75552 0 3.75V29.25C0.000265089 30.2445 0.395438 31.1982 1.09864 31.9014C1.80185 32.6046 2.75552 32.9997 3.75 33H15.75C16.7445 32.9997 17.6982 32.6046 18.4014 31.9014C19.1046 31.1982 19.4997 30.2445 19.5 29.25V3.75C19.4997 2.75552 19.1046 1.80185 18.4014 1.09864C17.6982 0.395438 16.7445 0.000265089 15.75 0ZM9.75 31.5C9.30499 31.5 8.86998 31.368 8.49997 31.1208C8.12996 30.8736 7.84157 30.5222 7.67127 30.111C7.50097 29.6999 7.45642 29.2475 7.54323 28.811C7.63005 28.3746 7.84434 27.9737 8.15901 27.659C8.47368 27.3443 8.87459 27.1301 9.31105 27.0432C9.7475 26.9564 10.1999 27.001 10.611 27.1713C11.0222 27.3416 11.3736 27.63 11.6208 28C11.868 28.37 12 28.805 12 29.25C12.0004 29.5456 11.9425 29.8383 11.8295 30.1115C11.7166 30.3847 11.5509 30.6329 11.3419 30.8419C11.1329 31.0509 10.8847 31.2166 10.6115 31.3295C10.3383 31.4425 10.0456 31.5004 9.75 31.5ZM16.5 25.5H3V4.5H16.5V25.5Z" fill="#E6B922"/>
</svg>
