<svg width="268" height="43" viewBox="0 0 268 43" fill="none" xmlns="http://www.w3.org/2000/svg">
<path d="M48.011 9.71897C48.6723 9.71897 49.2697 9.86297 49.803 10.151C50.3363 10.4283 50.7523 10.8496 51.051 11.415C51.3603 11.9803 51.515 12.6683 51.515 13.479V18.647H50.075V13.687C50.075 12.8123 49.8563 12.1456 49.419 11.687C48.9817 11.2176 48.3843 10.983 47.627 10.983C46.859 10.983 46.2457 11.223 45.787 11.703C45.339 12.183 45.115 12.8816 45.115 13.799V18.647H43.659V6.80697H45.115V11.127C45.403 10.679 45.7977 10.3323 46.299 10.087C46.811 9.84164 47.3817 9.71897 48.011 9.71897ZM57.7174 18.791C56.896 18.791 56.1494 18.6043 55.4774 18.231C54.816 17.8576 54.2934 17.3296 53.9094 16.647C53.536 15.9536 53.3494 15.1536 53.3494 14.247C53.3494 13.351 53.5414 12.5616 53.9254 11.879C54.32 11.1856 54.8534 10.6576 55.5254 10.295C56.1974 9.92164 56.9494 9.73497 57.7814 9.73497C58.6134 9.73497 59.3654 9.92164 60.0374 10.295C60.7094 10.6576 61.2374 11.1803 61.6214 11.863C62.016 12.5456 62.2134 13.3403 62.2134 14.247C62.2134 15.1536 62.0107 15.9536 61.6054 16.647C61.2107 17.3296 60.672 17.8576 59.9894 18.231C59.3067 18.6043 58.5494 18.791 57.7174 18.791ZM57.7174 17.511C58.24 17.511 58.7307 17.3883 59.1894 17.143C59.648 16.8976 60.016 16.5296 60.2934 16.039C60.5814 15.5483 60.7254 14.951 60.7254 14.247C60.7254 13.543 60.5867 12.9456 60.3094 12.455C60.032 11.9643 59.6694 11.6016 59.2214 11.367C58.7734 11.1216 58.288 10.999 57.7654 10.999C57.232 10.999 56.7414 11.1216 56.2934 11.367C55.856 11.6016 55.504 11.9643 55.2374 12.455C54.9707 12.9456 54.8374 13.543 54.8374 14.247C54.8374 14.9616 54.9654 15.5643 55.2214 16.055C55.488 16.5456 55.84 16.9136 56.2774 17.159C56.7147 17.3936 57.1947 17.511 57.7174 17.511ZM65.9038 11.079V16.247C65.9038 16.6736 65.9944 16.9776 66.1758 17.159C66.3571 17.3296 66.6718 17.415 67.1198 17.415H68.1918V18.647H66.8798C66.0691 18.647 65.4611 18.4603 65.0558 18.087C64.6504 17.7136 64.4478 17.1003 64.4478 16.247V11.079H63.3118V9.87897H64.4478V7.67097H65.9038V9.87897H68.1918V11.079H65.9038ZM77.9559 13.927C77.9559 14.2043 77.9399 14.4976 77.9079 14.807H70.8999C70.9532 15.671 71.2465 16.3483 71.7799 16.839C72.3239 17.319 72.9799 17.559 73.7479 17.559C74.3772 17.559 74.8999 17.415 75.3159 17.127C75.7425 16.8283 76.0412 16.4336 76.2119 15.943H77.7799C77.5452 16.7856 77.0759 17.4736 76.3719 18.007C75.6679 18.5296 74.7932 18.791 73.7479 18.791C72.9159 18.791 72.1692 18.6043 71.5079 18.231C70.8572 17.8576 70.3452 17.3296 69.9719 16.647C69.5985 15.9536 69.4119 15.1536 69.4119 14.247C69.4119 13.3403 69.5932 12.5456 69.9559 11.863C70.3185 11.1803 70.8252 10.6576 71.4759 10.295C72.1372 9.92164 72.8945 9.73497 73.7479 9.73497C74.5799 9.73497 75.3159 9.91631 75.9559 10.279C76.5959 10.6416 77.0865 11.143 77.4279 11.783C77.7799 12.4123 77.9559 13.127 77.9559 13.927ZM76.4519 13.623C76.4519 13.0683 76.3292 12.5936 76.0839 12.199C75.8385 11.7936 75.5025 11.4896 75.0759 11.287C74.6599 11.0736 74.1959 10.967 73.6839 10.967C72.9479 10.967 72.3185 11.2016 71.7959 11.671C71.2839 12.1403 70.9905 12.791 70.9159 13.623H76.4519ZM81.3338 6.80697V18.647H79.8778V6.80697H81.3338ZM87.4313 9.73497C88.1886 9.73497 88.8499 9.90031 89.4153 10.231C89.9913 10.5616 90.4179 10.9776 90.6953 11.479V9.87897H92.1673V18.839C92.1673 19.639 91.9966 20.3483 91.6553 20.967C91.3139 21.5963 90.8233 22.087 90.1833 22.439C89.5539 22.791 88.8179 22.967 87.9753 22.967C86.8233 22.967 85.8633 22.695 85.0953 22.151C84.3273 21.607 83.8739 20.8656 83.7353 19.927H85.1753C85.3353 20.4603 85.6659 20.887 86.1673 21.207C86.6686 21.5376 87.2713 21.703 87.9753 21.703C88.7753 21.703 89.4259 21.4523 89.9273 20.951C90.4393 20.4496 90.6953 19.7456 90.6953 18.839V16.999C90.4073 17.511 89.9806 17.9376 89.4153 18.279C88.8499 18.6203 88.1886 18.791 87.4313 18.791C86.6526 18.791 85.9433 18.599 85.3033 18.215C84.6739 17.831 84.1779 17.2923 83.8153 16.599C83.4526 15.9056 83.2713 15.1163 83.2713 14.231C83.2713 13.335 83.4526 12.551 83.8153 11.879C84.1779 11.1963 84.6739 10.6683 85.3033 10.295C85.9433 9.92164 86.6526 9.73497 87.4313 9.73497ZM90.6953 14.247C90.6953 13.5856 90.5619 13.0096 90.2953 12.519C90.0286 12.0283 89.6659 11.655 89.2073 11.399C88.7593 11.1323 88.2633 10.999 87.7193 10.999C87.1753 10.999 86.6793 11.127 86.2313 11.383C85.7833 11.639 85.4259 12.0123 85.1593 12.503C84.8926 12.9936 84.7593 13.5696 84.7593 14.231C84.7593 14.903 84.8926 15.4896 85.1593 15.991C85.4259 16.4816 85.7833 16.8603 86.2313 17.127C86.6793 17.383 87.1753 17.511 87.7193 17.511C88.2633 17.511 88.7593 17.383 89.2073 17.127C89.6659 16.8603 90.0286 16.4816 90.2953 15.991C90.5619 15.4896 90.6953 14.9083 90.6953 14.247ZM96.0838 11.303C96.3398 10.8016 96.7024 10.4123 97.1718 10.135C97.6518 9.85764 98.2331 9.71897 98.9158 9.71897V11.223H98.5318C96.8998 11.223 96.0838 12.1083 96.0838 13.879V18.647H94.6278V9.87897H96.0838V11.303ZM108.149 9.87897L102.869 22.775H101.365L103.093 18.551L99.5565 9.87897H101.173L103.925 16.983L106.645 9.87897H108.149ZM113.18 11.079H111.34V18.647H109.884V11.079H108.748V9.87897H109.884V9.25497C109.884 8.27364 110.135 7.55897 110.636 7.11097C111.148 6.65231 111.964 6.42297 113.084 6.42297V7.63897C112.444 7.63897 111.991 7.76697 111.724 8.02297C111.468 8.26831 111.34 8.67897 111.34 9.25497V9.87897H113.18V11.079ZM118.446 11.079H116.606V18.647H115.15V11.079H114.014V9.87897H115.15V9.25497C115.15 8.27364 115.4 7.55897 115.902 7.11097C116.414 6.65231 117.23 6.42297 118.35 6.42297V7.63897C117.71 7.63897 117.256 7.76697 116.99 8.02297C116.734 8.26831 116.606 8.67897 116.606 9.25497V9.87897H118.446V11.079ZM120.895 8.45497C120.618 8.45497 120.383 8.35897 120.191 8.16697C119.999 7.97497 119.903 7.74031 119.903 7.46297C119.903 7.18564 119.999 6.95097 120.191 6.75897C120.383 6.56697 120.618 6.47097 120.895 6.47097C121.162 6.47097 121.386 6.56697 121.567 6.75897C121.759 6.95097 121.855 7.18564 121.855 7.46297C121.855 7.74031 121.759 7.97497 121.567 8.16697C121.386 8.35897 121.162 8.45497 120.895 8.45497ZM121.599 9.87897V18.647H120.143V9.87897H121.599ZM128.353 9.71897C129.42 9.71897 130.284 10.0443 130.945 10.695C131.606 11.335 131.937 12.263 131.937 13.479V18.647H130.497V13.687C130.497 12.8123 130.278 12.1456 129.841 11.687C129.404 11.2176 128.806 10.983 128.049 10.983C127.281 10.983 126.668 11.223 126.209 11.703C125.761 12.183 125.537 12.8816 125.537 13.799V18.647H124.081V9.87897H125.537V11.127C125.825 10.679 126.214 10.3323 126.705 10.087C127.206 9.84164 127.756 9.71897 128.353 9.71897ZM133.771 14.231C133.771 13.335 133.953 12.551 134.315 11.879C134.678 11.1963 135.174 10.6683 135.803 10.295C136.443 9.92164 137.158 9.73497 137.947 9.73497C138.63 9.73497 139.265 9.89497 139.851 10.215C140.438 10.5243 140.886 10.935 141.195 11.447V6.80697H142.667V18.647H141.195V16.999C140.907 17.5216 140.481 17.9536 139.915 18.295C139.35 18.6256 138.689 18.791 137.931 18.791C137.153 18.791 136.443 18.599 135.803 18.215C135.174 17.831 134.678 17.2923 134.315 16.599C133.953 15.9056 133.771 15.1163 133.771 14.231ZM141.195 14.247C141.195 13.5856 141.062 13.0096 140.795 12.519C140.529 12.0283 140.166 11.655 139.707 11.399C139.259 11.1323 138.763 10.999 138.219 10.999C137.675 10.999 137.179 11.127 136.731 11.383C136.283 11.639 135.926 12.0123 135.659 12.503C135.393 12.9936 135.259 13.5696 135.259 14.231C135.259 14.903 135.393 15.4896 135.659 15.991C135.926 16.4816 136.283 16.8603 136.731 17.127C137.179 17.383 137.675 17.511 138.219 17.511C138.763 17.511 139.259 17.383 139.707 17.127C140.166 16.8603 140.529 16.4816 140.795 15.991C141.062 15.4896 141.195 14.9083 141.195 14.247ZM148.952 18.791C148.13 18.791 147.384 18.6043 146.712 18.231C146.05 17.8576 145.528 17.3296 145.144 16.647C144.77 15.9536 144.584 15.1536 144.584 14.247C144.584 13.351 144.776 12.5616 145.16 11.879C145.554 11.1856 146.088 10.6576 146.76 10.295C147.432 9.92164 148.184 9.73497 149.016 9.73497C149.848 9.73497 150.6 9.92164 151.272 10.295C151.944 10.6576 152.472 11.1803 152.856 11.863C153.25 12.5456 153.448 13.3403 153.448 14.247C153.448 15.1536 153.245 15.9536 152.84 16.647C152.445 17.3296 151.906 17.8576 151.224 18.231C150.541 18.6043 149.784 18.791 148.952 18.791ZM148.952 17.511C149.474 17.511 149.965 17.3883 150.424 17.143C150.882 16.8976 151.25 16.5296 151.528 16.039C151.816 15.5483 151.96 14.951 151.96 14.247C151.96 13.543 151.821 12.9456 151.544 12.455C151.266 11.9643 150.904 11.6016 150.456 11.367C150.008 11.1216 149.522 10.999 149 10.999C148.466 10.999 147.976 11.1216 147.528 11.367C147.09 11.6016 146.738 11.9643 146.472 12.455C146.205 12.9456 146.072 13.543 146.072 14.247C146.072 14.9616 146.2 15.5643 146.456 16.055C146.722 16.5456 147.074 16.9136 147.512 17.159C147.949 17.3936 148.429 17.511 148.952 17.511ZM156.818 11.303C157.074 10.8016 157.437 10.4123 157.906 10.135C158.386 9.85764 158.967 9.71897 159.65 9.71897V11.223H159.266C157.634 11.223 156.818 12.1083 156.818 13.879V18.647H155.362V9.87897H156.818V11.303ZM169.331 8.39097C170.515 8.39097 171.544 8.61497 172.419 9.06297C173.294 9.51097 173.966 10.1403 174.435 10.951C174.904 11.751 175.139 12.679 175.139 13.735C175.139 14.5776 175 15.3883 174.723 16.167C174.446 16.935 174.04 17.559 173.507 18.039C172.984 18.519 172.371 18.759 171.667 18.759C171.134 18.759 170.723 18.6256 170.435 18.359C170.147 18.0923 169.982 17.7296 169.939 17.271C169.608 17.7296 169.187 18.0923 168.675 18.359C168.174 18.6256 167.64 18.759 167.075 18.759C166.264 18.759 165.624 18.5136 165.155 18.023C164.696 17.5216 164.467 16.8496 164.467 16.007C164.467 15.207 164.632 14.4603 164.963 13.767C165.304 13.0736 165.774 12.519 166.371 12.103C166.968 11.6763 167.646 11.463 168.403 11.463C169.416 11.463 170.099 11.847 170.451 12.615L170.627 11.623H171.891L171.091 16.247C171.059 16.4496 171.043 16.6363 171.043 16.807C171.043 17.447 171.326 17.767 171.891 17.767C172.318 17.767 172.686 17.5643 172.995 17.159C173.315 16.7536 173.555 16.247 173.715 15.639C173.875 15.0203 173.955 14.4123 173.955 13.815C173.955 12.4176 173.534 11.335 172.691 10.567C171.859 9.79897 170.68 9.41497 169.155 9.41497C167.886 9.41497 166.739 9.72431 165.715 10.343C164.702 10.951 163.907 11.7883 163.331 12.855C162.755 13.9216 162.467 15.1003 162.467 16.391C162.456 17.799 162.878 18.8816 163.731 19.639C164.584 20.407 165.768 20.791 167.283 20.791C168.286 20.791 169.171 20.6096 169.939 20.247L170.131 21.239C169.182 21.6336 168.136 21.831 166.995 21.831C165.854 21.831 164.846 21.6123 163.971 21.175C163.107 20.7483 162.435 20.1296 161.955 19.319C161.486 18.519 161.251 17.5856 161.251 16.519C161.251 15.015 161.598 13.6443 162.291 12.407C162.984 11.159 163.944 10.1776 165.171 9.46297C166.408 8.74831 167.795 8.39097 169.331 8.39097ZM167.507 17.623C167.987 17.623 168.43 17.4843 168.835 17.207C169.24 16.919 169.56 16.535 169.795 16.055C170.03 15.5643 170.147 15.031 170.147 14.455C170.147 13.9003 169.992 13.4523 169.683 13.111C169.384 12.759 168.958 12.583 168.403 12.583C167.891 12.583 167.438 12.7376 167.043 13.047C166.659 13.3456 166.36 13.7456 166.147 14.247C165.934 14.7376 165.827 15.2496 165.827 15.783C165.827 16.3483 165.971 16.7963 166.259 17.127C166.547 17.4576 166.963 17.623 167.507 17.623ZM181.15 9.73497C181.907 9.73497 182.569 9.90031 183.134 10.231C183.71 10.5616 184.137 10.9776 184.414 11.479V9.87897H185.886V18.839C185.886 19.639 185.715 20.3483 185.374 20.967C185.033 21.5963 184.542 22.087 183.902 22.439C183.273 22.791 182.537 22.967 181.694 22.967C180.542 22.967 179.582 22.695 178.814 22.151C178.046 21.607 177.593 20.8656 177.454 19.927H178.894C179.054 20.4603 179.385 20.887 179.886 21.207C180.387 21.5376 180.99 21.703 181.694 21.703C182.494 21.703 183.145 21.4523 183.646 20.951C184.158 20.4496 184.414 19.7456 184.414 18.839V16.999C184.126 17.511 183.699 17.9376 183.134 18.279C182.569 18.6203 181.907 18.791 181.15 18.791C180.371 18.791 179.662 18.599 179.022 18.215C178.393 17.831 177.897 17.2923 177.534 16.599C177.171 15.9056 176.99 15.1163 176.99 14.231C176.99 13.335 177.171 12.551 177.534 11.879C177.897 11.1963 178.393 10.6683 179.022 10.295C179.662 9.92164 180.371 9.73497 181.15 9.73497ZM184.414 14.247C184.414 13.5856 184.281 13.0096 184.014 12.519C183.747 12.0283 183.385 11.655 182.926 11.399C182.478 11.1323 181.982 10.999 181.438 10.999C180.894 10.999 180.398 11.127 179.95 11.383C179.502 11.639 179.145 12.0123 178.878 12.503C178.611 12.9936 178.478 13.5696 178.478 14.231C178.478 14.903 178.611 15.4896 178.878 15.991C179.145 16.4816 179.502 16.8603 179.95 17.127C180.398 17.383 180.894 17.511 181.438 17.511C181.982 17.511 182.478 17.383 182.926 17.127C183.385 16.8603 183.747 16.4816 184.014 15.991C184.281 15.4896 184.414 14.9083 184.414 14.247ZM198.891 9.71897C199.573 9.71897 200.181 9.86297 200.715 10.151C201.248 10.4283 201.669 10.8496 201.979 11.415C202.288 11.9803 202.443 12.6683 202.443 13.479V18.647H201.003V13.687C201.003 12.8123 200.784 12.1456 200.347 11.687C199.92 11.2176 199.339 10.983 198.603 10.983C197.845 10.983 197.243 11.2283 196.795 11.719C196.347 12.199 196.123 12.8976 196.123 13.815V18.647H194.683V13.687C194.683 12.8123 194.464 12.1456 194.027 11.687C193.6 11.2176 193.019 10.983 192.283 10.983C191.525 10.983 190.923 11.2283 190.475 11.719C190.027 12.199 189.803 12.8976 189.803 13.815V18.647H188.347V9.87897H189.803V11.143C190.091 10.6843 190.475 10.3323 190.955 10.087C191.445 9.84164 191.984 9.71897 192.571 9.71897C193.307 9.71897 193.957 9.88431 194.523 10.215C195.088 10.5456 195.509 11.031 195.787 11.671C196.032 11.0523 196.437 10.5723 197.003 10.231C197.568 9.88964 198.197 9.71897 198.891 9.71897ZM204.287 14.231C204.287 13.335 204.468 12.551 204.831 11.879C205.194 11.1963 205.69 10.6683 206.319 10.295C206.959 9.92164 207.668 9.73497 208.447 9.73497C209.215 9.73497 209.882 9.90031 210.447 10.231C211.012 10.5616 211.434 10.9776 211.711 11.479V9.87897H213.183V18.647H211.711V17.015C211.423 17.527 210.991 17.9536 210.415 18.295C209.85 18.6256 209.188 18.791 208.431 18.791C207.652 18.791 206.948 18.599 206.319 18.215C205.69 17.831 205.194 17.2923 204.831 16.599C204.468 15.9056 204.287 15.1163 204.287 14.231ZM211.711 14.247C211.711 13.5856 211.578 13.0096 211.311 12.519C211.044 12.0283 210.682 11.655 210.223 11.399C209.775 11.1323 209.279 10.999 208.735 10.999C208.191 10.999 207.695 11.127 207.247 11.383C206.799 11.639 206.442 12.0123 206.175 12.503C205.908 12.9936 205.775 13.5696 205.775 14.231C205.775 14.903 205.908 15.4896 206.175 15.991C206.442 16.4816 206.799 16.8603 207.247 17.127C207.695 17.383 208.191 17.511 208.735 17.511C209.279 17.511 209.775 17.383 210.223 17.127C210.682 16.8603 211.044 16.4816 211.311 15.991C211.578 15.4896 211.711 14.9083 211.711 14.247ZM216.395 8.45497C216.118 8.45497 215.883 8.35897 215.691 8.16697C215.499 7.97497 215.403 7.74031 215.403 7.46297C215.403 7.18564 215.499 6.95097 215.691 6.75897C215.883 6.56697 216.118 6.47097 216.395 6.47097C216.662 6.47097 216.886 6.56697 217.067 6.75897C217.259 6.95097 217.355 7.18564 217.355 7.46297C217.355 7.74031 217.259 7.97497 217.067 8.16697C216.886 8.35897 216.662 8.45497 216.395 8.45497ZM217.099 9.87897V18.647H215.643V9.87897H217.099ZM221.037 6.80697V18.647H219.581V6.80697H221.037ZM223.982 18.743C223.705 18.743 223.47 18.647 223.278 18.455C223.086 18.263 222.99 18.0283 222.99 17.751C222.99 17.4736 223.086 17.239 223.278 17.047C223.47 16.855 223.705 16.759 223.982 16.759C224.249 16.759 224.473 16.855 224.654 17.047C224.846 17.239 224.942 17.4736 224.942 17.751C224.942 18.0283 224.846 18.263 224.654 18.455C224.473 18.647 224.249 18.743 223.982 18.743ZM226.334 14.247C226.334 13.3403 226.515 12.551 226.878 11.879C227.24 11.1963 227.742 10.6683 228.382 10.295C229.032 9.92164 229.774 9.73497 230.606 9.73497C231.683 9.73497 232.568 9.99631 233.262 10.519C233.966 11.0416 234.43 11.767 234.654 12.695H233.086C232.936 12.1616 232.643 11.7403 232.206 11.431C231.779 11.1216 231.246 10.967 230.606 10.967C229.774 10.967 229.102 11.255 228.59 11.831C228.078 12.3963 227.822 13.2016 227.822 14.247C227.822 15.303 228.078 16.119 228.59 16.695C229.102 17.271 229.774 17.559 230.606 17.559C231.246 17.559 231.779 17.4096 232.206 17.111C232.632 16.8123 232.926 16.3856 233.086 15.831H234.654C234.419 16.727 233.95 17.447 233.246 17.991C232.542 18.5243 231.662 18.791 230.606 18.791C229.774 18.791 229.032 18.6043 228.382 18.231C227.742 17.8576 227.24 17.3296 226.878 16.647C226.515 15.9643 226.334 15.1643 226.334 14.247ZM240.421 18.791C239.599 18.791 238.853 18.6043 238.181 18.231C237.519 17.8576 236.997 17.3296 236.613 16.647C236.239 15.9536 236.053 15.1536 236.053 14.247C236.053 13.351 236.245 12.5616 236.629 11.879C237.023 11.1856 237.557 10.6576 238.229 10.295C238.901 9.92164 239.653 9.73497 240.485 9.73497C241.317 9.73497 242.069 9.92164 242.741 10.295C243.413 10.6576 243.941 11.1803 244.325 11.863C244.719 12.5456 244.917 13.3403 244.917 14.247C244.917 15.1536 244.714 15.9536 244.309 16.647C243.914 17.3296 243.375 17.8576 242.693 18.231C242.01 18.6043 241.253 18.791 240.421 18.791ZM240.421 17.511C240.943 17.511 241.434 17.3883 241.893 17.143C242.351 16.8976 242.719 16.5296 242.997 16.039C243.285 15.5483 243.429 14.951 243.429 14.247C243.429 13.543 243.29 12.9456 243.013 12.455C242.735 11.9643 242.373 11.6016 241.925 11.367C241.477 11.1216 240.991 10.999 240.469 10.999C239.935 10.999 239.445 11.1216 238.997 11.367C238.559 11.6016 238.207 11.9643 237.941 12.455C237.674 12.9456 237.541 13.543 237.541 14.247C237.541 14.9616 237.669 15.5643 237.925 16.055C238.191 16.5456 238.543 16.9136 238.981 17.159C239.418 17.3936 239.898 17.511 240.421 17.511Z" fill="#595959"/>
<path d="M24.5107 3.93115H3.01111C2.55373 3.93115 2.1842 4.22465 2.1842 4.58793V17.7236C2.1842 18.0869 2.55373 18.3804 3.01111 18.3804H24.5107C24.9681 18.3804 25.3376 18.0869 25.3376 17.7236V4.58793C25.3376 4.22465 24.9681 3.93115 24.5107 3.93115ZM23.4771 6.20526V16.9026H4.04475V6.20526L3.33154 5.76398L4.34708 4.7275L5.45307 5.41096H22.0713L23.1773 4.7275L24.1929 5.76398L23.4771 6.20526ZM22.0713 5.40891L13.7609 10.54L5.45049 5.40891L4.3445 4.72545L3.32895 5.76193L4.04216 6.20321L12.8694 11.6545C13.1233 11.8111 13.4356 11.8962 13.757 11.8962C14.0785 11.8962 14.3908 11.8111 14.6447 11.6545L23.4771 6.20526L24.1903 5.76398L23.1747 4.7275L22.0713 5.40891Z" fill="#A67153"/>
</svg>
