<svg width="205" height="43" viewBox="0 0 205 43" fill="none" xmlns="http://www.w3.org/2000/svg">
<path d="M50.9789 13.1269H47.5709V16.5829H46.2109V13.1269H42.8189V11.8949H46.2109V8.42289H47.5709V11.8949H50.9789V13.1269ZM55.2128 15.2549C55.3195 15.8629 55.5648 16.3322 55.9488 16.6629C56.3435 16.9936 56.8715 17.1589 57.5328 17.1589C58.4181 17.1589 59.0688 16.8122 59.4848 16.1189C59.9115 15.4256 60.1141 14.2576 60.0928 12.6149C59.8688 13.0949 59.4955 13.4736 58.9728 13.7509C58.4501 14.0176 57.8688 14.1509 57.2288 14.1509C56.5141 14.1509 55.8741 14.0069 55.3088 13.7189C54.7541 13.4202 54.3168 12.9882 53.9968 12.4229C53.6768 11.8576 53.5168 11.1749 53.5168 10.3749C53.5168 9.23355 53.8475 8.31622 54.5088 7.62289C55.1701 6.91889 56.1088 6.56689 57.3248 6.56689C58.8181 6.56689 59.8635 7.05222 60.4608 8.02289C61.0688 8.99355 61.3728 10.4389 61.3728 12.3589C61.3728 13.7029 61.2501 14.8122 61.0048 15.6869C60.7701 16.5616 60.3648 17.2282 59.7888 17.6869C59.2235 18.1456 58.4448 18.3749 57.4528 18.3749C56.3648 18.3749 55.5168 18.0816 54.9088 17.4949C54.3008 16.9082 53.9541 16.1616 53.8688 15.2549H55.2128ZM57.4688 12.9189C58.1835 12.9189 58.7701 12.7002 59.2288 12.2629C59.6875 11.8149 59.9168 11.2122 59.9168 10.4549C59.9168 9.65489 59.6928 9.00955 59.2448 8.51889C58.7968 8.02822 58.1675 7.78289 57.3568 7.78289C56.6101 7.78289 56.0128 8.01755 55.5648 8.48689C55.1275 8.95622 54.9088 9.57489 54.9088 10.3429C54.9088 11.1216 55.1275 11.7456 55.5648 12.2149C56.0021 12.6842 56.6368 12.9189 57.4688 12.9189ZM63.4189 12.4549C63.4189 10.6202 63.7176 9.19089 64.3149 8.16689C64.9123 7.13222 65.9576 6.61489 67.4509 6.61489C68.9336 6.61489 69.9736 7.13222 70.5709 8.16689C71.1683 9.19089 71.4669 10.6202 71.4669 12.4549C71.4669 14.3216 71.1683 15.7722 70.5709 16.8069C69.9736 17.8416 68.9336 18.3589 67.4509 18.3589C65.9576 18.3589 64.9123 17.8416 64.3149 16.8069C63.7176 15.7722 63.4189 14.3216 63.4189 12.4549ZM70.0269 12.4549C70.0269 11.5269 69.9629 10.7429 69.8349 10.1029C69.7176 9.45222 69.4669 8.92955 69.0829 8.53489C68.7096 8.14022 68.1656 7.94289 67.4509 7.94289C66.7256 7.94289 66.1709 8.14022 65.7869 8.53489C65.4136 8.92955 65.1629 9.45222 65.0349 10.1029C64.9176 10.7429 64.8589 11.5269 64.8589 12.4549C64.8589 13.4149 64.9176 14.2202 65.0349 14.8709C65.1629 15.5216 65.4136 16.0442 65.7869 16.4389C66.1709 16.8336 66.7256 17.0309 67.4509 17.0309C68.1656 17.0309 68.7096 16.8336 69.0829 16.4389C69.4669 16.0442 69.7176 15.5216 69.8349 14.8709C69.9629 14.2202 70.0269 13.4149 70.0269 12.4549ZM73.0818 8.11889V6.79089H76.0898V18.3589H74.6178V8.11889H73.0818ZM82.6804 17.1909C84.0351 16.1029 85.0964 15.2122 85.8644 14.5189C86.6324 13.8149 87.2778 13.0842 87.8004 12.3269C88.3338 11.5589 88.6004 10.8069 88.6004 10.0709C88.6004 9.37755 88.4298 8.83355 88.0884 8.43889C87.7578 8.03355 87.2191 7.83089 86.4724 7.83089C85.7471 7.83089 85.1818 8.06022 84.7764 8.51889C84.3818 8.96689 84.1684 9.56955 84.1364 10.3269H82.7284C82.7711 9.13222 83.1338 8.20955 83.8164 7.55889C84.4991 6.90822 85.3791 6.58289 86.4564 6.58289C87.5551 6.58289 88.4244 6.88689 89.0644 7.49489C89.7151 8.10289 90.0404 8.94022 90.0404 10.0069C90.0404 10.8922 89.7738 11.7562 89.2404 12.5989C88.7178 13.4309 88.1204 14.1669 87.4484 14.8069C86.7764 15.4362 85.9178 16.1722 84.8724 17.0149H90.3764V18.2309H82.6804V17.1909ZM91.7076 15.7829V14.6789L97.3236 6.90289H99.0676V14.5189H100.668V15.7829H99.0676V18.3589H97.6276V15.7829H91.7076ZM97.6916 8.42289L93.3876 14.5189H97.6916V8.42289ZM101.77 15.7829V14.6789L107.386 6.90289H109.13V14.5189H110.73V15.7829H109.13V18.3589H107.69V15.7829H101.77ZM107.754 8.42289L103.45 14.5189H107.754V8.42289ZM122.898 9.54289C122.664 8.35889 121.933 7.76689 120.706 7.76689C119.757 7.76689 119.048 8.13489 118.578 8.87089C118.109 9.59622 117.88 10.7962 117.89 12.4709C118.136 11.9162 118.541 11.4842 119.106 11.1749C119.682 10.8549 120.322 10.6949 121.026 10.6949C122.125 10.6949 123 11.0362 123.65 11.7189C124.312 12.4016 124.642 13.3456 124.642 14.5509C124.642 15.2762 124.498 15.9269 124.21 16.5029C123.933 17.0789 123.506 17.5376 122.93 17.8789C122.365 18.2202 121.677 18.3909 120.866 18.3909C119.768 18.3909 118.909 18.1456 118.29 17.6549C117.672 17.1642 117.24 16.4869 116.994 15.6229C116.749 14.7589 116.626 13.6922 116.626 12.4229C116.626 8.50822 117.992 6.55089 120.722 6.55089C121.768 6.55089 122.589 6.83355 123.186 7.39889C123.784 7.96422 124.136 8.67889 124.242 9.54289H122.898ZM120.722 11.9269C120.264 11.9269 119.832 12.0229 119.426 12.2149C119.021 12.3962 118.69 12.6789 118.434 13.0629C118.189 13.4362 118.066 13.8949 118.066 14.4389C118.066 15.2496 118.301 15.9109 118.77 16.4229C119.24 16.9242 119.912 17.1749 120.786 17.1749C121.533 17.1749 122.125 16.9456 122.562 16.4869C123.01 16.0176 123.234 15.3882 123.234 14.5989C123.234 13.7669 123.021 13.1162 122.594 12.6469C122.168 12.1669 121.544 11.9269 120.722 11.9269ZM133.054 9.54289C132.82 8.35889 132.089 7.76689 130.862 7.76689C129.913 7.76689 129.204 8.13489 128.734 8.87089C128.265 9.59622 128.036 10.7962 128.046 12.4709C128.292 11.9162 128.697 11.4842 129.262 11.1749C129.838 10.8549 130.478 10.6949 131.182 10.6949C132.281 10.6949 133.156 11.0362 133.806 11.7189C134.468 12.4016 134.798 13.3456 134.798 14.5509C134.798 15.2762 134.654 15.9269 134.366 16.5029C134.089 17.0789 133.662 17.5376 133.086 17.8789C132.521 18.2202 131.833 18.3909 131.022 18.3909C129.924 18.3909 129.065 18.1456 128.446 17.6549C127.828 17.1642 127.396 16.4869 127.15 15.6229C126.905 14.7589 126.782 13.6922 126.782 12.4229C126.782 8.50822 128.148 6.55089 130.878 6.55089C131.924 6.55089 132.745 6.83355 133.342 7.39889C133.94 7.96422 134.292 8.67889 134.398 9.54289H133.054ZM130.878 11.9269C130.42 11.9269 129.988 12.0229 129.582 12.2149C129.177 12.3962 128.846 12.6789 128.59 13.0629C128.345 13.4362 128.222 13.8949 128.222 14.4389C128.222 15.2496 128.457 15.9109 128.926 16.4229C129.396 16.9242 130.068 17.1749 130.942 17.1749C131.689 17.1749 132.281 16.9456 132.718 16.4869C133.166 16.0176 133.39 15.3882 133.39 14.5989C133.39 13.7669 133.177 13.1162 132.75 12.6469C132.324 12.1669 131.7 11.9269 130.878 11.9269ZM144.139 8.05489H138.523V11.7029C138.768 11.3616 139.131 11.0842 139.611 10.8709C140.091 10.6469 140.608 10.5349 141.163 10.5349C142.048 10.5349 142.768 10.7216 143.323 11.0949C143.877 11.4576 144.272 11.9322 144.507 12.5189C144.752 13.0949 144.875 13.7082 144.875 14.3589C144.875 15.1269 144.731 15.8149 144.443 16.4229C144.155 17.0309 143.712 17.5109 143.115 17.8629C142.528 18.2149 141.797 18.3909 140.923 18.3909C139.803 18.3909 138.896 18.1029 138.203 17.5269C137.509 16.9509 137.088 16.1829 136.939 15.2229H138.363C138.501 15.8309 138.795 16.3056 139.243 16.6469C139.691 16.9882 140.256 17.1589 140.939 17.1589C141.781 17.1589 142.416 16.9082 142.843 16.4069C143.269 15.8949 143.483 15.2229 143.483 14.3909C143.483 13.5589 143.269 12.9189 142.843 12.4709C142.416 12.0122 141.787 11.7829 140.955 11.7829C140.389 11.7829 139.893 11.9216 139.467 12.1989C139.051 12.4656 138.747 12.8336 138.555 13.3029H137.179V6.77489H144.139V8.05489ZM146.778 9.70289C146.852 8.72155 147.231 7.95355 147.914 7.39889C148.596 6.84422 149.482 6.56689 150.57 6.56689C151.295 6.56689 151.919 6.70022 152.442 6.96689C152.975 7.22289 153.375 7.57489 153.642 8.02289C153.919 8.47089 154.058 8.97755 154.058 9.54289C154.058 10.2042 153.866 10.7749 153.482 11.2549C153.108 11.7349 152.618 12.0442 152.01 12.1829V12.2629C152.703 12.4336 153.252 12.7696 153.658 13.2709C154.063 13.7722 154.266 14.4282 154.266 15.2389C154.266 15.8469 154.127 16.3962 153.85 16.8869C153.572 17.3669 153.156 17.7456 152.602 18.0229C152.047 18.3002 151.38 18.4389 150.602 18.4389C149.471 18.4389 148.543 18.1456 147.818 17.5589C147.092 16.9616 146.687 16.1189 146.602 15.0309H148.01C148.084 15.6709 148.346 16.1936 148.794 16.5989C149.242 17.0042 149.839 17.2069 150.586 17.2069C151.332 17.2069 151.898 17.0149 152.282 16.6309C152.676 16.2362 152.874 15.7296 152.874 15.1109C152.874 14.3109 152.607 13.7349 152.074 13.3829C151.54 13.0309 150.735 12.8549 149.658 12.8549H149.29V11.6389H149.674C150.655 11.6282 151.396 11.4682 151.898 11.1589C152.399 10.8389 152.65 10.3482 152.65 9.68689C152.65 9.12155 152.463 8.66822 152.09 8.32689C151.727 7.98555 151.204 7.81489 150.522 7.81489C149.86 7.81489 149.327 7.98555 148.922 8.32689C148.516 8.66822 148.276 9.12689 148.202 9.70289H146.778ZM166.945 9.54289C166.71 8.35889 165.98 7.76689 164.753 7.76689C163.804 7.76689 163.094 8.13489 162.625 8.87089C162.156 9.59622 161.926 10.7962 161.937 12.4709C162.182 11.9162 162.588 11.4842 163.153 11.1749C163.729 10.8549 164.369 10.6949 165.073 10.6949C166.172 10.6949 167.046 11.0362 167.697 11.7189C168.358 12.4016 168.689 13.3456 168.689 14.5509C168.689 15.2762 168.545 15.9269 168.257 16.5029C167.98 17.0789 167.553 17.5376 166.977 17.8789C166.412 18.2202 165.724 18.3909 164.913 18.3909C163.814 18.3909 162.956 18.1456 162.337 17.6549C161.718 17.1642 161.286 16.4869 161.041 15.6229C160.796 14.7589 160.673 13.6922 160.673 12.4229C160.673 8.50822 162.038 6.55089 164.769 6.55089C165.814 6.55089 166.636 6.83355 167.233 7.39889C167.83 7.96422 168.182 8.67889 168.289 9.54289H166.945ZM164.769 11.9269C164.31 11.9269 163.878 12.0229 163.473 12.2149C163.068 12.3962 162.737 12.6789 162.481 13.0629C162.236 13.4362 162.113 13.8949 162.113 14.4389C162.113 15.2496 162.348 15.9109 162.817 16.4229C163.286 16.9242 163.958 17.1749 164.833 17.1749C165.58 17.1749 166.172 16.9456 166.609 16.4869C167.057 16.0176 167.281 15.3882 167.281 14.5989C167.281 13.7669 167.068 13.1162 166.641 12.6469C166.214 12.1669 165.59 11.9269 164.769 11.9269ZM177.101 9.54289C176.867 8.35889 176.136 7.76689 174.909 7.76689C173.96 7.76689 173.251 8.13489 172.781 8.87089C172.312 9.59622 172.083 10.7962 172.093 12.4709C172.339 11.9162 172.744 11.4842 173.309 11.1749C173.885 10.8549 174.525 10.6949 175.229 10.6949C176.328 10.6949 177.203 11.0362 177.853 11.7189C178.515 12.4016 178.845 13.3456 178.845 14.5509C178.845 15.2762 178.701 15.9269 178.413 16.5029C178.136 17.0789 177.709 17.5376 177.133 17.8789C176.568 18.2202 175.88 18.3909 175.069 18.3909C173.971 18.3909 173.112 18.1456 172.493 17.6549C171.875 17.1642 171.443 16.4869 171.197 15.6229C170.952 14.7589 170.829 13.6922 170.829 12.4229C170.829 8.50822 172.195 6.55089 174.925 6.55089C175.971 6.55089 176.792 6.83355 177.389 7.39889C177.987 7.96422 178.339 8.67889 178.445 9.54289H177.101ZM174.925 11.9269C174.467 11.9269 174.035 12.0229 173.629 12.2149C173.224 12.3962 172.893 12.6789 172.637 13.0629C172.392 13.4362 172.269 13.8949 172.269 14.4389C172.269 15.2496 172.504 15.9109 172.973 16.4229C173.443 16.9242 174.115 17.1749 174.989 17.1749C175.736 17.1749 176.328 16.9456 176.765 16.4869C177.213 16.0176 177.437 15.3882 177.437 14.5989C177.437 13.7669 177.224 13.1162 176.797 12.6469C176.371 12.1669 175.747 11.9269 174.925 11.9269ZM180.634 17.1909C181.988 16.1029 183.05 15.2122 183.818 14.5189C184.586 13.8149 185.231 13.0842 185.754 12.3269C186.287 11.5589 186.554 10.8069 186.554 10.0709C186.554 9.37755 186.383 8.83355 186.042 8.43889C185.711 8.03355 185.172 7.83089 184.426 7.83089C183.7 7.83089 183.135 8.06022 182.73 8.51889C182.335 8.96689 182.122 9.56955 182.09 10.3269H180.682C180.724 9.13222 181.087 8.20955 181.77 7.55889C182.452 6.90822 183.332 6.58289 184.41 6.58289C185.508 6.58289 186.378 6.88689 187.018 7.49489C187.668 8.10289 187.994 8.94022 187.994 10.0069C187.994 10.8922 187.727 11.7562 187.194 12.5989C186.671 13.4309 186.074 14.1669 185.402 14.8069C184.73 15.4362 183.871 16.1722 182.826 17.0149H188.33V18.2309H180.634V17.1909Z" fill="#595959"/>
<path d="M1.78691 3.68704L5.30955 0.892127C5.73955 0.550643 6.31507 0.358887 6.92368 0.358887C7.53229 0.358887 8.10782 0.548016 8.53781 0.892127L12.3317 3.89981C12.7617 4.2413 13.0031 4.70099 13.0031 5.18432C13.0031 5.67028 12.765 6.12471 12.3317 6.46883L9.36803 8.82506C10.0432 10.0743 11.0132 11.2094 12.2258 12.169C13.4397 13.1383 14.8587 13.9027 16.4332 14.4438L19.3968 12.0876C19.8268 11.7461 20.4023 11.5543 21.0109 11.5543C21.3111 11.5534 21.6085 11.6001 21.8857 11.6917C22.1629 11.7833 22.4142 11.9178 22.6251 12.0876L26.4222 15.0952C26.8522 15.4367 27.0937 15.8964 27.0937 16.3797C27.0937 16.8657 26.8555 17.3201 26.4222 17.6642L22.9029 20.4592C22.1686 21.0423 21.1565 21.3759 20.1179 21.3759C19.9029 21.3759 19.6945 21.3628 19.4828 21.3339C15.1035 20.7612 10.7572 18.9094 7.24783 16.1249C3.74173 13.3353 1.41315 9.88367 0.685465 6.40316C0.477083 5.41548 0.893848 4.39891 1.78691 3.68704ZM3.03058 6.09057C3.67558 9.18756 5.77262 12.2767 8.93142 14.7853C12.0902 17.2939 15.9767 18.9593 19.8764 19.4715C20.3659 19.5372 20.8687 19.4058 21.2259 19.1248L24.6824 16.3797L21.0175 13.4666L17.055 16.6188L17.0252 16.6424L16.3108 16.4323C14.1445 15.7998 12.1773 14.8007 10.5456 13.5044C8.91383 12.2081 7.65654 10.6455 6.86084 8.92488L6.59622 8.35749L10.5919 5.18695L6.92699 2.27382L3.4705 5.01883C3.11328 5.30253 2.94789 5.7018 3.03058 6.09057Z" fill="#A67153"/>
</svg>
