<svg width="24" height="25" viewBox="0 0 24 25" fill="none" xmlns="http://www.w3.org/2000/svg">
<path d="M22.2857 0H1.70897C1.25309 0.00356652 0.817168 0.195312 0.496805 0.533189C0.176443 0.871066 -0.00221117 1.32749 2.06619e-05 1.80238V23.1976C-0.00221117 23.6725 0.176443 24.1289 0.496805 24.4668C0.817168 24.8047 1.25309 24.9964 1.70897 25H22.2857C22.7422 24.9966 23.1788 24.8051 23.5 24.4674C23.8213 24.1296 24.001 23.6731 24 23.1976V1.80238C24.001 1.32692 23.8213 0.870381 23.5 0.532619C23.1788 0.194856 22.7422 0.00335603 22.2857 0ZM7.25335 21.4286H3.69678V9.49762H7.25869V21.4286H7.25335ZM5.47507 7.86825C5.06715 7.86825 4.66839 7.74225 4.32922 7.50618C3.99005 7.27011 3.72569 6.93457 3.56959 6.542C3.41348 6.14943 3.37264 5.71746 3.45222 5.30071C3.5318 4.88396 3.72824 4.50114 4.01668 4.20068C4.30512 3.90022 4.67262 3.69561 5.0727 3.61271C5.47278 3.52981 5.88748 3.57236 6.26434 3.73497C6.64121 3.89757 6.96333 4.17294 7.18995 4.52625C7.41658 4.87955 7.53754 5.29493 7.53754 5.71984C7.53734 6.28957 7.31998 6.83591 6.93324 7.23877C6.54649 7.64163 6.02201 7.86804 5.47507 7.86825ZM20.5875 21.4286H17.0301V15.6254C17.0301 14.2413 17.0035 12.4611 15.1817 12.4611C13.328 12.4611 13.0446 13.969 13.0446 15.5246V21.4286H9.48726V9.49762H12.8998V11.127H12.9478C13.2902 10.5189 13.7843 10.0188 14.3777 9.6798C14.971 9.34079 15.6415 9.17554 16.3177 9.20159C19.9177 9.20159 20.5844 11.6738 20.5844 14.8881L20.5875 21.4286Z" fill="#E6B922"/>
</svg>
