<svg width="21" height="30" viewBox="0 0 21 30" fill="none" xmlns="http://www.w3.org/2000/svg">
<path d="M10.5 3.05255e-06C9.12083 -0.00104895 7.75498 0.269824 6.48058 0.797125C5.20619 1.32443 4.04826 2.09781 3.07304 3.07304C2.09781 4.04826 1.32443 5.20619 0.797125 6.48058C0.269823 7.75498 -0.00104895 9.12083 3.05255e-06 10.5C3.05255e-06 18.375 10.5 30 10.5 30C10.5 30 21 18.375 21 10.5C21.0011 9.12083 20.7302 7.75498 20.2029 6.48058C19.6756 5.20619 18.9022 4.04826 17.927 3.07304C16.9517 2.09781 15.7938 1.32443 14.5194 0.797125C13.245 0.269824 11.8792 -0.00104895 10.5 3.05255e-06ZM10.5 14.25C9.75832 14.25 9.0333 14.0301 8.41661 13.618C7.79993 13.206 7.31928 12.6203 7.03545 11.9351C6.75163 11.2498 6.67736 10.4958 6.82206 9.76841C6.96675 9.04099 7.32391 8.3728 7.84835 7.84835C8.3728 7.32391 9.04099 6.96675 9.76841 6.82206C10.4958 6.67736 11.2498 6.75163 11.9351 7.03545C12.6203 7.31928 13.206 7.79993 13.618 8.41661C14.0301 9.0333 14.25 9.75832 14.25 10.5C14.2497 11.4945 13.8546 12.4482 13.1514 13.1514C12.4482 13.8546 11.4945 14.2497 10.5 14.25Z" fill="#E6B922"/>
</svg>
