<svg width="24" height="24" viewBox="0 0 24 24" fill="none" xmlns="http://www.w3.org/2000/svg">
<path d="M12.0027 5.8469C10.7859 5.8469 9.59651 6.20779 8.58484 6.88395C7.57316 7.5601 6.78465 8.52114 6.31903 9.64554C5.85341 10.7699 5.73158 12.0072 5.96895 13.2009C6.20632 14.3945 6.79224 15.491 7.6526 16.3515C8.51296 17.2121 9.60912 17.7982 10.8025 18.0356C11.9958 18.273 13.2328 18.1512 14.3569 17.6854C15.481 17.2197 16.4418 16.431 17.1178 15.4191C17.7938 14.4071 18.1546 13.2174 18.1546 12.0004C18.1559 11.1919 17.9976 10.3912 17.6889 9.644C17.3802 8.89684 16.9271 8.21796 16.3556 7.6463C15.7841 7.07464 15.1054 6.62143 14.3584 6.31265C13.6115 6.00387 12.8109 5.84559 12.0027 5.8469ZM12.0027 16.0006C11.2117 16.0006 10.4385 15.766 9.7808 15.3265C9.12313 14.8869 8.61053 14.2622 8.30784 13.5312C8.00515 12.8003 7.92595 11.9959 8.08026 11.22C8.23457 10.444 8.61546 9.73121 9.17477 9.17177C9.73407 8.61232 10.4467 8.23133 11.2224 8.07698C11.9982 7.92263 12.8023 8.00185 13.5331 8.30462C14.2639 8.60739 14.8885 9.12011 15.3279 9.77795C15.7673 10.4358 16.0019 11.2092 16.0019 12.0004C15.9999 13.0607 15.5779 14.077 14.8283 14.8268C14.0788 15.5765 13.0627 15.9986 12.0027 16.0006ZM19.8412 5.59555C19.8412 5.87933 19.7571 6.15674 19.5995 6.3927C19.4419 6.62866 19.2179 6.81259 18.9558 6.92122C18.6937 7.02985 18.4053 7.05831 18.127 7.00301C17.8488 6.9477 17.5931 6.81111 17.3925 6.6105C17.1918 6.40989 17.0551 6.15427 16.9997 5.87597C16.9442 5.59766 16.9725 5.30916 17.081 5.04694C17.1895 4.78472 17.3732 4.56055 17.609 4.40278C17.8449 4.24502 18.1221 4.16073 18.4059 4.16058C18.5944 4.16007 18.7812 4.19684 18.9556 4.26877C19.1299 4.3407 19.2883 4.44637 19.4217 4.57971C19.555 4.71304 19.6608 4.87143 19.7328 5.04576C19.8048 5.22009 19.8416 5.40693 19.8412 5.59555ZM23.9143 7.0549C23.9535 5.18969 23.2573 3.38396 21.9764 2.02792C20.6179 0.750986 18.8145 0.055401 16.9507 0.0894884C14.9709 -0.0232377 9.0314 -0.0232377 7.05158 0.0894884C5.18828 0.0528261 3.38455 0.746619 2.02588 2.02259C0.747103 3.38001 0.05134 5.1848 0.0879411 7.04956C-0.0247564 9.02989 -0.0247564 14.9709 0.0879411 16.9512C0.0487982 18.8164 0.744919 20.6221 2.02588 21.9782C3.38489 23.2542 5.18792 23.9496 7.05158 23.9166C9.0314 24.0293 14.9709 24.0293 16.9507 23.9166C18.8154 23.9557 20.6207 23.2594 21.9764 21.9782C23.253 20.6194 23.9484 18.8155 23.9143 16.9512C24.027 14.9709 24.027 9.03598 23.9143 7.05413V7.0549ZM21.3565 19.0747C21.1529 19.592 20.845 20.0618 20.452 20.4549C20.059 20.848 19.5893 21.156 19.0721 21.3597C17.4929 21.9865 13.7419 21.8418 11.9996 21.8418C10.2574 21.8418 6.50104 21.9812 4.92708 21.3597C4.40992 21.156 3.94021 20.848 3.5472 20.4549C3.15419 20.0618 2.84629 19.592 2.64267 19.0747C2.01598 17.495 2.16066 13.7431 2.16066 12.0004C2.16066 10.2577 2.02131 6.50041 2.64267 4.92605C2.84629 4.40876 3.15419 3.93893 3.5472 3.54582C3.94021 3.15271 4.40992 2.84473 4.92708 2.64106C6.50637 2.01421 10.2574 2.15893 11.9996 2.15893C13.7419 2.15893 17.4982 2.01954 19.0721 2.64106C19.5893 2.84473 20.059 3.15271 20.452 3.54582C20.845 3.93893 21.1529 4.40876 21.3565 4.92605C21.9832 6.50574 21.8386 10.2577 21.8386 12.0004C21.8386 13.7431 21.9825 17.5003 21.3565 19.0747Z" fill="#E6B922"/>
</svg>
