<svg width="28" height="22" viewBox="0 0 28 22" fill="none" xmlns="http://www.w3.org/2000/svg">
<path d="M25.1222 5.48281C25.1401 5.72358 25.1401 5.96436 25.1401 6.20438C25.1401 13.5435 19.3659 21.9992 8.813 21.9992C5.68851 22.0072 2.62816 21.1418 0 19.5072C0.460224 19.5561 0.923015 19.579 1.386 19.5756C3.96883 19.582 6.47859 18.7466 8.51044 17.204C7.31276 17.1832 6.15172 16.8009 5.18954 16.1106C4.22737 15.4204 3.51214 14.4565 3.14378 13.3539C3.50219 13.4087 3.86436 13.4374 4.22722 13.4396C4.73691 13.4383 5.24438 13.3749 5.73767 13.2508C4.43824 12.9965 3.26989 12.3149 2.4311 11.3217C1.5923 10.3285 1.13481 9.08504 1.13633 7.80252V7.73405C1.9322 8.1647 2.82211 8.40706 3.73333 8.44132C2.5141 7.65575 1.65099 6.44941 1.32038 5.06883C0.98977 3.68825 1.21661 2.23764 1.95456 1.01344C3.39593 2.72977 5.19411 4.13387 7.2325 5.13467C9.27088 6.13548 11.5039 6.71064 13.7869 6.82287C13.6947 6.40481 13.647 5.97873 13.6446 5.55128C13.6456 4.43779 13.9924 3.3503 14.6401 2.4298C15.2877 1.50931 16.2063 0.798279 17.2767 0.38891C18.3471 -0.020458 19.52 -0.109281 20.6432 0.13396C21.7664 0.3772 22.7882 0.941283 23.576 1.75307C24.8612 1.5136 26.0937 1.05992 27.2183 0.412254C26.7904 1.69519 25.8932 2.783 24.6952 3.47159C25.8349 3.34616 26.9489 3.05654 28 2.61233C27.2145 3.71893 26.2415 4.68938 25.1222 5.48281Z" fill="#E6B922"/>
</svg>
